ply
format ascii 1.0
comment VCGLIB generated
element vertex 272
property float x
property float y
property float z
property float nx
property float ny
property float nz
property float texture_u
property float texture_v
element face 540
property list uchar int vertex_indices
end_header
-0.9812383 0.5999991 -0.6000005 -0.7968754 3.08549e-08 -0.6041437 -0.981238 0.599999
-0.5999995 0.5999994 -0.9812386 -0.5820073 1.41063e-08 -0.8131836 -0.599999 0.599999
-0.5999994 0.9999992 -0.9812386 -0.6141589 0.09869746 -0.7829864 -0.599999 0.999999
-0.9812384 0.9999995 -0.6000005 -0.7939253 0.08425708 -0.602149 -0.981238 1.000000
-0.5666155 0.5999992 -1 -0.4172172 -4.619822e-09 -0.9088068 -0.566616 0.599999
-0.5666156 0.9999995 -1 -0.4164324 0.05632456 -0.9074203 -0.566616 1.000000
-0.1999995 0.5999994 -1.133311 -0.1734984 -2.073853e-08 -0.9848341 -0.199999 0.599999
-0.1999997 0.9999992 -1.133311 -0.1627768 0.1138328 -0.9800744 -0.200000 0.999999
0.2000005 0.5999992 -1.133311 0.1734984 -1.643504e-08 -0.9848341 0.200000 0.599999
0.2000003 0.9999992 -1.133311 0.1628242 0.0833458 -0.9831286 0.200000 0.999999
0.5666163 0.5999992 -1 0.4172165 -6.85237e-08 -0.9088072 0.566616 0.599999
0.5666166 0.9999995 -1 0.416432 0.0563249 -0.9074205 0.566617 1.000000
0.4026045 1.4 -1 0.3759266 0.3280593 -0.8666351 0.402604 1.400000
0.2000004 1.399999 -1.060113 0.1098556 0.2758767 -0.9548947 0.200000 1.399999
0.6000004 0.9999992 -0.9812386 0.5969988 0.1151326 -0.7939376 0.600000 0.999999
0.6000005 1.399999 -0.8957174 0.5286354 0.4025245 -0.7473411 0.600001 1.399999
0.9812383 0.9999993 -0.6000005 0.7955362 0.05614993 -0.6032988 0.981238 0.999999
0.8957172 1.399999 -0.6000005 0.764345 0.3359576 -0.5503719 0.895717 1.399999
1 0.9999993 -0.5666155 0.9092034 0.11025 -0.4014899 1.000000 0.999999
1 1.4 -0.4026045 0.8562971 0.3731062 -0.3571373 1.000000 1.400000
1.13331 0.9999992 -0.2000005 0.9807488 0.08995153 -0.1733225 1.133310 0.999999
1.060113 1.399999 -0.2000005 0.9450495 0.2906786 -0.1496242 1.060113 1.399999
1.13331 0.9999992 0.2000005 0.983089 0.05934598 0.1732459 1.133310 0.999999
1.060113 1.399999 0.2000005 0.9567313 0.2496684 0.1494354 1.060113 1.399999
1 0.9999993 0.5666155 0.9092034 0.11025 0.4014899 1.000000 0.999999
1 1.4 0.4026045 0.8562971 0.3731062 0.3571372 1.000000 1.400000
0.9812383 0.9999993 0.6000005 0.7955361 0.05614993 0.6032989 0.981238 0.999999
0.8957172 1.399999 0.6000005 0.7643451 0.3359575 0.5503719 0.895717 1.399999
0.6000004 1.77588 0.6000005 0.6073198 0.5850202 0.5375073 0.600000 1.775880
0.6000003 1.799999 0.5666155 0.5584904 0.7225833 0.4073842 0.600000 1.799999
0.8014212 1.799999 0.2000005 0.7231748 0.6347509 0.272231 0.801421 1.799999
1 1.530195 0.2000005 0.8565894 0.5053315 0.104378 1.000000 1.530195
0.5666164 1.799999 0.6000005 0.4006542 0.6874316 0.6057343 0.566616 1.799999
0.4026045 1.4 0.9999995 0.3759268 0.3280596 0.8666348 0.402604 1.400000
0.2000006 1.530195 0.9999995 0.1511176 0.51783 0.8420306 0.200001 1.530195
0.2000005 1.799999 0.8014215 0.1870833 0.6816373 0.7073686 0.200000 1.799999
0.6000005 1.399999 0.8957175 0.5286348 0.4025246 0.7473415 0.600001 1.399999
-0.1999996 1.530195 0.9999995 -0.2115682 0.5181524 0.8287081 -0.200000 1.530195
-0.1999997 1.799999 0.8014215 -0.1244766 0.6882291 0.7147351 -0.200000 1.799999
-0.4026045 1.4 0.9999995 -0.3759269 0.3280595 0.8666348 -0.402604 1.400000
-0.5999995 1.399999 0.8957175 -0.5286349 0.4025245 0.7473415 -0.599999 1.399999
-0.5999994 1.77588 0.6000005 -0.6073192 0.5850201 0.5375082 -0.599999 1.775880
-0.5666155 1.799999 0.6000005 -0.4001893 0.6927553 0.5999489 -0.566616 1.799999
-0.8957173 1.399999 0.6000005 -0.7643467 0.3359579 0.5503694 -0.895717 1.399999
-0.9999993 1.4 0.4026045 -0.8562971 0.3731061 0.3571374 -0.999999 1.400000
-0.9999995 1.530195 0.2000005 -0.8565888 0.5053322 0.1043785 -1.000000 1.530195
-0.8014213 1.799999 0.2000005 -0.7231746 0.634751 0.2722313 -0.801421 1.799999
-0.5999995 1.799999 0.5666155 -0.5127687 0.7592479 0.4007629 -0.599999 1.799999
-1.060113 1.399999 0.2000005 -0.9567304 0.2496708 0.1494371 -1.060113 1.399999
-1.060113 1.399999 -0.2000005 -0.9450486 0.290681 -0.1496259 -1.060113 1.399999
-0.9999995 1.530195 -0.2000005 -0.850776 0.5015891 -0.1568079 -1.000000 1.530195
-0.9999993 1.4 -0.4026045 -0.8562972 0.3731061 -0.3571374 -0.999999 1.400000
-0.8957173 1.399999 -0.6000005 -0.7643467 0.3359579 -0.5503695 -0.895717 1.399999
-0.5999994 1.77588 -0.6000005 -0.6073191 0.5850201 -0.5375082 -0.599999 1.775880
-0.5999995 1.799999 -0.5666155 -0.5584896 0.7225835 -0.4073849 -0.599999 1.799999
-0.8014213 1.799999 -0.2000005 -0.7275734 0.6522647 -0.2125738 -0.801421 1.799999
-0.5666155 1.799999 -0.6000005 -0.4006544 0.6874316 -0.6057341 -0.566616 1.799999
-0.4026045 1.4 -1 -0.3759266 0.3280591 -0.8666351 -0.402604 1.400000
-0.1999996 1.530195 -1 -0.2115672 0.5181497 -0.82871 -0.200000 1.530195
-0.1999997 1.799999 -0.8014214 -0.1244765 0.6882295 -0.7147348 -0.200000 1.799999
-0.5999995 1.399999 -0.8957174 -0.5286356 0.4025245 -0.747341 -0.599999 1.399999
0.2000005 1.799999 -0.8014214 0.1870831 0.6816378 -0.7073683 0.200000 1.799999
0.2000006 1.530195 -1 0.1511169 0.517827 -0.8420326 0.200001 1.530195
-0.1999995 1.399999 -1.060113 -0.1098544 0.3245085 -0.9394819 -0.199999 1.399999
0.2000003 1.960788 -0.6000005 0.1202528 0.8607888 -0.4945522 0.200000 1.960788
-0.1999996 1.960788 -0.6000005 -0.212371 0.8574759 -0.4686509 -0.200000 1.960788
0.5666164 1.799999 -0.6000005 0.4001893 0.6927555 -0.5999487 0.566616 1.799999
0.6000003 1.799999 -0.5666155 0.5127692 0.7592479 -0.4007623 0.600000 1.799999
0.6000006 1.960788 -0.2000005 0.4656972 0.8730838 -0.1443985 0.600001 1.960788
0.2000006 2.115109 -0.2000005 0.2109445 0.954466 -0.2109431 0.200001 2.115109
0.8014212 1.799999 -0.2000005 0.7275738 0.6522645 -0.2125737 0.801421 1.799999
0.6000006 1.960788 0.2000005 0.4810661 0.8520337 0.2064316 0.600001 1.960788
0.2000006 2.115109 0.2000005 0.1823201 0.9661877 0.1823201 0.200001 2.115109
-0.1999996 2.115109 0.2000005 -0.2109446 0.954466 0.210943 -0.200000 2.115109
-0.1999996 2.115109 -0.2000005 -0.1823202 0.9661877 -0.1823201 -0.200000 2.115109
-0.5999994 1.960788 0.2000005 -0.4945513 0.8607893 0.1202531 -0.599999 1.960788
-0.5999994 1.960788 -0.2000005 -0.4534462 0.858293 -0.2402493 -0.599999 1.960788
-0.1999996 1.960788 0.6000005 -0.1443981 0.8730841 0.4656968 -0.200000 1.960788
0.2000003 1.960788 0.6000005 0.177172 0.8490576 0.4977062 0.200000 1.960788
0.6000004 1.77588 -0.6000005 0.6073197 0.5850202 -0.5375074 0.600000 1.775880
-0.9999993 0.9999991 -0.5666155 -0.9050158 0.09452607 -0.4147426 -0.999999 0.999999
-1.133311 0.9999995 0.2000005 -0.9830887 0.05934563 0.1732475 -1.133311 1.000000
-1.133311 0.9999995 -0.2000005 -0.9807484 0.08995212 -0.1733241 -1.133311 1.000000
-1.13331 0.5999991 0.2000005 -0.9848342 -8.781454e-07 0.173498 -1.133310 0.599999
-1.13331 0.5999991 -0.2000005 -0.9848342 -1.334428e-06 -0.173498 -1.133310 0.599999
-0.9999996 0.5999994 -0.5666155 -0.9155125 -2.324481e-07 -0.4022896 -1.000000 0.599999
-0.9999993 0.9999991 0.5666155 -0.9092054 0.1102509 0.4014851 -0.999999 0.999999
-0.9999996 0.5999994 0.5666155 -0.9088107 -2.368847e-07 0.4172089 -1.000000 0.599999
-1.13331 0.1999992 0.2000005 -0.9848342 1.308366e-06 0.1734985 -1.133310 0.199999
-0.9999996 0.1999995 0.5666155 -0.9088102 -4.502275e-08 0.4172098 -1.000000 0.199999
-1.133311 -0.2000006 0.2000005 -0.9848341 -4.539187e-07 0.173499 -1.133311 -0.200001
-0.9999995 -0.2000006 0.5666155 -0.9088106 4.393353e-07 0.4172089 -1.000000 -0.200001
-0.9812385 -0.2000006 0.6000005 -0.7968761 4.923162e-08 0.6041429 -0.981238 -0.200001
-0.9812383 0.1999992 0.6000005 -0.7968752 9.032593e-08 0.604144 -0.981238 0.199999
-0.5999995 0.1999993 0.9812385 -0.6041468 0 0.796873 -0.599999 0.199999
-0.5999995 -0.2000006 0.9812385 -0.6041468 1.662412e-08 0.7968731 -0.599999 -0.200001
-0.5666155 -0.2000006 0.9999995 -0.4172142 -1.207354e-08 0.9088082 -0.566616 -0.200001
-0.5666155 0.1999993 0.9999995 -0.417214 -1.490202e-08 0.9088083 -0.566616 0.199999
-0.1999996 0.1999993 1.133311 -0.173499 -1.082227e-14 0.9848341 -0.200000 0.199999
-0.1999995 -0.2000006 1.133311 -0.173499 -1.508113e-08 0.9848341 -0.199999 -0.200001
0.2000005 -0.2000006 1.133311 0.173499 0 0.9848341 0.200000 -0.200001
0.2000005 0.1999993 1.133311 0.173499 2.585337e-08 0.9848341 0.200000 0.199999
0.5666165 -0.2000005 0.9999995 0.4172143 -2.058897e-08 0.9088082 0.566616 -0.200000
0.5666165 0.1999993 0.9999995 0.4172144 6.240244e-08 0.9088081 0.566616 0.199999
0.6000004 0.1999993 0.9812385 0.604147 -2.235702e-08 0.7968729 0.600000 0.199999
0.6000004 -0.2000006 0.9812385 0.6041475 1.772656e-08 0.7968725 0.600000 -0.200001
0.9812385 -0.2000006 0.6000005 0.7968733 3.946209e-08 0.6041465 0.981238 -0.200001
0.9812384 0.1999993 0.6000005 0.796873 3.946208e-08 0.6041468 0.981238 0.199999
1 0.1999993 0.5666155 0.9088086 4.215251e-07 0.4172132 1.000000 0.199999
1 -0.2000006 0.5666155 0.908809 -3.999204e-07 0.4172124 1.000000 -0.200001
1.13331 -0.2000007 0.2000005 0.9848344 -8.805103e-07 0.1734975 1.133310 -0.200001
1.133311 0.1999994 0.2000005 0.9848342 -4.539185e-07 0.1734984 1.133311 0.199999
1.133311 0.1999994 -0.2000005 0.9848342 4.539195e-07 -0.1734984 1.133311 0.199999
1.13331 -0.2000007 -0.2000005 0.9848344 -1.332065e-06 -0.1734975 1.133310 -0.200001
1 0.1999993 -0.5666155 0.9088086 4.191891e-07 -0.4172132 1.000000 0.199999
1 -0.2000006 -0.5666155 0.908809 -3.974661e-07 -0.4172124 1.000000 -0.200001
0.9812385 -0.2000006 -0.6000005 0.7968733 3.347891e-08 -0.6041465 0.981238 -0.200001
0.9812384 0.1999993 -0.6000005 0.7968731 3.347891e-08 -0.6041467 0.981238 0.199999
0.6000004 0.1999993 -0.9812386 0.6041504 -2.290034e-08 -0.7968704 0.600000 0.199999
0.6000004 -0.2000006 -0.9812386 0.6041508 1.162434e-08 -0.79687 0.600000 -0.200001
0.5666165 -0.2000005 -1 0.4172175 -2.019252e-08 -0.9088067 0.566616 -0.200000
0.5666165 0.1999993 -1 0.4172176 6.057765e-08 -0.9088067 0.566616 0.199999
0.2000005 0.1999993 -1.133311 0.1734984 2.424151e-08 -0.9848341 0.200000 0.199999
0.2000005 -0.2000006 -1.133311 0.1734984 0 -0.9848341 0.200000 -0.200001
-0.1999996 0.1999993 -1.133311 -0.1734984 -1.202474e-14 -0.9848341 -0.200000 0.199999
-0.1999995 -0.2000006 -1.133311 -0.1734984 -1.6161e-08 -0.9848341 -0.199999 -0.200001
-0.5666155 -0.2000006 -1 -0.4172173 -1.220799e-08 -0.9088067 -0.566616 -0.200001
-0.5666155 0.1999993 -1 -0.4172172 -1.596907e-08 -0.9088068 -0.566616 0.199999
-0.5999995 0.1999993 -0.9812386 -0.6041501 0 -0.7968705 -0.599999 0.199999
-0.5999995 -0.2000006 -0.9812386 -0.6041501 1.764906e-08 -0.7968706 -0.599999 -0.200001
-0.9812385 -0.2000006 -0.6000005 -0.7968761 5.567587e-08 -0.6041427 -0.981238 -0.200001
-0.9812383 0.1999992 -0.6000005 -0.7968752 9.653206e-08 -0.604144 -0.981238 0.199999
-0.9999996 0.1999995 -0.5666155 -0.9088102 -4.567668e-08 -0.4172098 -1.000000 0.199999
-0.9999995 -0.2000006 -0.5666155 -0.9088106 4.406623e-07 -0.4172089 -1.000000 -0.200001
-1.133311 -0.2000006 -0.2000005 -0.9848341 4.539194e-07 -0.173499 -1.133311 -0.200001
-1.13331 0.1999992 -0.2000005 -0.9848341 8.562689e-07 -0.1734985 -1.133310 0.199999
-1.13331 -0.6000006 -0.2000005 -0.9848341 -4.539199e-07 -0.1734985 -1.133310 -0.600001
-0.9999995 -0.6000007 -0.5666155 -0.908811 -4.431296e-07 -0.4172081 -1.000000 -0.600001
-1.13331 -0.6000006 0.2000005 -0.9848341 4.539175e-07 0.1734985 -1.133310 -0.600001
-1.133311 -1.000001 0.2000005 -0.9800743 -0.113832 0.1627781 -1.133311 -1.000001
-1.133311 -1.000001 -0.2000005 -0.9831285 -0.08334441 -0.1628254 -1.133311 -1.000001
-0.9999995 -0.6000007 0.5666155 -0.908811 -4.409119e-07 0.4172081 -1.000000 -0.600001
-0.9999995 -1.000001 0.5666155 -0.9074246 -0.05632298 0.4164233 -1.000000 -1.000001
-0.9812384 -1.000001 0.6000005 -0.7939424 -0.115131 0.5969929 -0.981238 -1.000001
-0.9812384 -0.6000006 0.6000005 -0.7968758 -2.737683e-08 0.6041433 -0.981238 -0.600001
-0.5999994 -0.6000006 0.9812385 -0.604147 -2.324866e-08 0.7968729 -0.599999 -0.600001
-0.5999995 -1.000001 0.9812385 -0.6032981 -0.05614972 0.7955367 -0.599999 -1.000001
-0.5666155 -1.000001 0.9999995 -0.4014907 -0.1102503 0.909203 -0.566616 -1.000001
-0.5666155 -0.6000006 0.9999995 -0.4172143 1.207355e-08 0.9088082 -0.566616 -0.600001
-0.1999995 -0.6000006 1.133311 -0.173499 0 0.9848341 -0.199999 -0.600001
-0.1999995 -1 1.133311 -0.1732473 -0.05934578 0.9830887 -0.199999 -1.000000
0.2000005 -1.000001 1.133311 0.1733239 -0.08995138 0.9807485 0.200000 -1.000001
0.2000005 -0.6000006 1.133311 0.173499 -8.617786e-09 0.9848341 0.200000 -0.600001
0.5666164 -1 0.9999995 0.40149 -0.1102505 0.9092034 0.566616 -1.000000
0.5666164 -0.6000006 0.9999995 0.4172141 -2.058897e-08 0.9088083 0.566616 -0.600001
0.6000004 -0.6000006 0.9812385 0.6041473 -1.214667e-08 0.7968727 0.600000 -0.600001
0.6000004 -1.000001 0.9812385 0.6032978 -0.05614972 0.7955369 0.600000 -1.000001
0.4026045 -1.4 0.9999995 0.3715717 -0.4316722 0.821945 0.402604 -1.400000
0.6000006 -1.400001 0.8957175 0.5719868 -0.2958325 0.7650583 0.600001 -1.400001
0.8957174 -1.400001 0.6000005 0.745778 -0.4530306 0.4884449 0.895717 -1.400001
0.9812384 -1.000001 0.6000005 0.793941 -0.1151313 0.5969946 0.981238 -1.000001
1 -1 0.5666155 0.9074233 -0.05632359 0.416426 1.000000 -1.000000
1 -1.4 0.4026045 0.8822923 -0.2867651 0.3732641 1.000000 -1.400000
1.060113 -1.400001 0.2000005 0.9442167 -0.2992878 0.1374107 1.060113 -1.400001
1.13331 -1.000001 0.2000005 0.9800746 -0.1138313 0.1627768 1.133310 -1.000001
1.13331 -1.000001 -0.2000005 0.9831287 -0.08334468 -0.1628241 1.133310 -1.000001
1.060113 -1.400001 -0.2000005 0.9492772 -0.3008279 -0.09151758 1.060113 -1.400001
1.13331 -0.6000006 0.2000005 0.9848344 0 0.1734975 1.133310 -0.600001
1.13331 -0.6000006 -0.2000005 0.9848344 0 -0.1734976 1.133310 -0.600001
1 -0.6000005 -0.5666155 0.9088093 0 -0.4172118 1.000000 -0.600001
1 -1 -0.5666155 0.9074233 -0.05632359 -0.416426 1.000000 -1.000000
0.9812384 -1.000001 -0.6000005 0.793941 -0.1151313 -0.5969946 0.981238 -1.000001
0.9812385 -0.6000006 -0.6000005 0.7968732 -3.347886e-08 -0.6041466 0.981238 -0.600001
0.6000004 -0.6000006 -0.9812386 0.6041506 -1.228192e-08 -0.7968702 0.600000 -0.600001
0.6000004 -1.000001 -0.9812386 0.6033011 -0.05614969 -0.7955344 0.600000 -1.000001
0.5666164 -1 -1 0.4014914 -0.1102506 -0.9092027 0.566616 -1.000000
0.5666164 -0.6000006 -1 0.4172173 -2.019252e-08 -0.9088068 0.566616 -0.600001
0.2000005 -0.6000006 -1.133311 0.1734984 -8.080499e-09 -0.9848341 0.200000 -0.600001
0.2000005 -1.000001 -1.133311 0.1733233 -0.08995266 -0.9807485 0.200000 -1.000001
-0.1999995 -0.6000006 -1.133311 -0.1734984 0 -0.9848341 -0.199999 -0.600001
-0.1999995 -1 -1.133311 -0.1732468 -0.05934664 -0.9830888 -0.199999 -1.000000
0.2000005 -1.400001 -1.060113 0.1794113 -0.2630269 -0.9479602 0.200000 -1.400001
-0.1999995 -1.400001 -1.060113 -0.1281572 -0.2752056 -0.9528051 -0.199999 -1.400001
-0.4026045 -1.4 -1 -0.3715726 -0.4316703 -0.8219457 -0.402604 -1.400000
-0.5666155 -1.000001 -1 -0.4014921 -0.1102504 -0.9092024 -0.566616 -1.000001
-0.5999995 -1.000001 -0.9812386 -0.6033014 -0.05614972 -0.7955342 -0.599999 -1.000001
-0.5999995 -1.400001 -0.8957174 -0.5719889 -0.2958324 -0.7650568 -0.599999 -1.400001
-0.8957175 -1.400001 -0.6000005 -0.745777 -0.4530315 -0.4884458 -0.895718 -1.400001
-0.9812384 -1.000001 -0.6000005 -0.7939424 -0.115131 -0.5969929 -0.981238 -1.000001
-0.9999995 -1.000001 -0.5666155 -0.9074246 -0.05632297 -0.4164233 -1.000000 -1.000001
-0.9999995 -1.400001 -0.4026045 -0.882292 -0.2867665 -0.3732636 -1.000000 -1.400001
-1.060113 -1.400001 -0.2000005 -0.9492763 -0.3008305 -0.09151769 -1.060113 -1.400001
-0.9999995 -1.530197 -0.2000005 -0.8276796 -0.5217736 -0.2066371 -1.000000 -1.530197
-1.060113 -1.400001 0.2000005 -0.9442158 -0.2992904 0.1374108 -1.060113 -1.400001
-0.9999995 -1.530197 0.2000005 -0.8411245 -0.5203137 0.1475913 -1.000000 -1.530197
-0.8014215 -1.800001 0.2000005 -0.7150252 -0.6621167 0.2243666 -0.801422 -1.800001
-0.8014215 -1.800001 -0.2000005 -0.7205116 -0.6746418 -0.1603794 -0.801422 -1.800001
-0.9999995 -1.400001 0.4026045 -0.8822921 -0.2867665 0.3732636 -1.000000 -1.400001
-0.8957175 -1.400001 0.6000005 -0.7457771 -0.4530315 0.4884457 -0.895718 -1.400001
-0.5999994 -1.77588 0.6000005 -0.5354545 -0.586778 0.6074374 -0.599999 -1.775880
-0.5999995 -1.800001 0.5666155 -0.591353 -0.6955091 0.4081284 -0.599999 -1.800001
-0.5666155 -1.800001 0.6000005 -0.4040351 -0.7238727 0.559253 -0.566616 -1.800001
-0.5999995 -1.400001 0.8957175 -0.5719873 -0.2958325 0.765058 -0.599999 -1.400001
-0.4026045 -1.4 0.9999995 -0.3715735 -0.4316713 0.8219447 -0.402604 -1.400000
-0.1999995 -1.530197 0.9999995 -0.15681 -0.5015924 0.8507736 -0.199999 -1.530197
-0.1999995 -1.8 0.8014215 -0.1579577 -0.6741931 0.7214658 -0.199999 -1.800000
0.2000005 -1.800001 0.8014215 0.2209872 -0.6616399 0.7165175 0.200000 -1.800001
0.2000005 -1.530197 0.9999995 0.1043799 -0.5053352 0.856587 0.200000 -1.530197
0.2000005 -1.400001 1.060114 0.1794141 -0.2630301 0.9479587 0.200000 -1.400001
-0.1999995 -1.400001 1.060114 -0.1281593 -0.275209 0.9528039 -0.199999 -1.400001
0.2000004 -1.960789 0.6000005 0.1443913 -0.8419418 0.5198897 0.200000 -1.960789
-0.1999994 -1.960788 0.6000005 -0.1770156 -0.8741981 0.4521539 -0.199999 -1.960788
0.5666165 -1.8 0.6000005 0.4031631 -0.7306299 0.5510349 0.566616 -1.800000
0.6000004 -1.800001 0.5666155 0.5490215 -0.7320452 0.4033425 0.600000 -1.800001
0.6000004 -1.960788 0.2000005 0.5198886 -0.8419424 0.1443913 0.600000 -1.960788
0.2000004 -2.115109 0.2000005 0.2306727 -0.9452934 0.2306742 0.200000 -2.115109
0.8014215 -1.800001 0.2000005 0.7150257 -0.6621162 0.2243665 0.801422 -1.800001
0.8014215 -1.800001 -0.2000005 0.720512 -0.6746414 -0.1603793 0.801422 -1.800001
0.6000004 -1.960788 -0.2000005 0.4418008 -0.873103 -0.2061632 0.600000 -1.960788
0.6000004 -1.800001 -0.5666155 0.591347 -0.6955135 -0.4081295 0.600000 -1.800001
0.5666165 -1.8 -0.6000005 0.4040274 -0.7238762 -0.5592541 0.566616 -1.800000
0.2000004 -1.960789 -0.6000005 0.1518336 -0.8644186 -0.4792986 0.200000 -1.960789
0.2000004 -2.115109 -0.2000005 0.144176 -0.9789928 -0.1441751 0.200000 -2.115109
-0.1999994 -1.960788 -0.6000005 -0.1806836 -0.8526749 -0.490203 -0.199999 -1.960788
-0.1999995 -2.115109 -0.2000005 -0.2306744 -0.9452934 -0.2306726 -0.199999 -2.115109
0.2000005 -1.800001 -0.8014214 0.2209873 -0.6616403 -0.716517 0.200000 -1.800001
-0.1999995 -1.8 -0.8014214 -0.1579577 -0.6741936 -0.7214655 -0.199999 -1.800000
-0.5666155 -1.800001 -0.6000005 -0.4031691 -0.7306283 -0.5510327 -0.566616 -1.800001
0.2000005 -1.530197 -1 0.1043792 -0.5053315 -0.8565893 0.200000 -1.530197
-0.1999995 -1.530197 -1 -0.1568089 -0.5015889 -0.8507759 -0.199999 -1.530197
0.6000005 -1.77588 -0.6000005 0.5354495 -0.5867819 -0.6074379 0.600001 -1.775880
0.6000006 -1.400001 -0.8957174 0.5719884 -0.2958325 -0.7650572 0.600001 -1.400001
0.4026045 -1.4 -1 0.3715709 -0.4316711 -0.821946 0.402604 -1.400000
0.8957174 -1.400001 -0.6000005 0.745778 -0.4530306 -0.488445 0.895717 -1.400001
-0.1999995 -2.115109 0.2000005 -0.1441759 -0.9789926 0.144176 -0.199999 -2.115109
-0.5999995 -1.960788 -0.2000005 -0.4902005 -0.8526764 -0.1806833 -0.599999 -1.960788
-0.5999995 -1.960788 0.2000005 -0.4672435 -0.8654691 0.1806842 -0.599999 -1.960788
1 -1.530197 -0.2000005 0.8276804 -0.521772 -0.2066375 1.000000 -1.530197
1 -1.4 -0.4026045 0.8822923 -0.2867651 -0.3732641 1.000000 -1.400000
1 -1.530197 0.2000005 0.8411253 -0.5203124 0.1475917 1.000000 -1.530197
0.6000005 -1.77588 0.6000005 0.5354491 -0.586782 0.6074381 0.600001 -1.775880
-0.5999995 -1.800001 -0.5666155 -0.5490255 -0.7320436 -0.4033402 -0.599999 -1.800001
-0.9812384 -0.6000006 -0.6000005 -0.7968759 -2.783788e-08 -0.6041431 -0.981238 -0.600001
-0.5999994 -1.77588 -0.6000005 -0.5354549 -0.5867779 -0.6074371 -0.599999 -1.775880
-0.5999994 -0.6000006 -0.9812386 -0.6041502 -2.935085e-08 -0.7968705 -0.599999 -0.600001
-0.5666155 -0.6000006 -1 -0.4172175 1.2208e-08 -0.9088067 -0.566616 -0.600001
1 -0.6000005 0.5666155 0.9088093 0 0.4172118 1.000000 -0.600001
0.9812385 -0.6000006 0.6000005 0.7968732 -3.946203e-08 0.6041467 0.981238 -0.600001
0.9812384 0.5999992 -0.6000005 0.796873 4.312897e-08 -0.6041469 0.981238 0.599999
0.6000005 0.5999994 -0.9812386 0.6041501 -2.653598e-08 -0.7968705 0.600001 0.599999
1 0.5999994 -0.5666155 0.9088088 4.344592e-08 -0.4172128 1.000000 0.599999
1.13331 0.5999992 0.2000005 0.9848343 1.33443e-06 0.173498 1.133310 0.599999
1.13331 0.5999992 -0.2000005 0.9848343 8.781466e-07 -0.173498 1.133310 0.599999
1 0.5999994 0.5666155 0.9088089 4.384469e-08 0.4172128 1.000000 0.599999
0.9812384 0.5999992 0.6000005 0.7968729 4.469037e-08 0.604147 0.981238 0.599999
0.5666163 0.5999992 0.9999995 0.4172133 -6.559296e-08 0.9088086 0.566616 0.599999
0.6000005 0.5999994 0.9812385 0.6041468 -2.591887e-08 0.796873 0.600001 0.599999
0.5666166 0.9999995 0.9999995 0.4164289 0.05632449 0.9074219 0.566617 1.000000
0.6000004 0.9999992 0.9812385 0.5969962 0.115132 0.7939396 0.600000 0.999999
0.2000005 0.5999992 1.133311 0.173499 -1.480721e-08 0.9848341 0.200000 0.599999
0.2000003 0.9999992 1.133311 0.1628257 0.08334497 0.9831284 0.200000 0.999999
-0.1999995 0.5999994 1.133311 -0.173499 -2.720189e-08 0.9848341 -0.199999 0.599999
-0.1999997 0.9999992 1.133311 -0.1627783 0.1138315 0.9800743 -0.200000 0.999999
-0.5666155 0.5999992 0.9999995 -0.417214 -9.282573e-09 0.9088083 -0.566616 0.599999
-0.5666156 0.9999995 0.9999995 -0.4164293 0.05632415 0.9074218 -0.566616 1.000000
-0.5999995 0.5999994 0.9812385 -0.604147 -1.728144e-08 0.7968729 -0.599999 0.599999
-0.5999994 0.9999992 0.9812385 -0.5969957 0.1151318 0.79394 -0.599999 0.999999
-0.9812383 0.5999991 0.6000005 -0.7968746 -7.85822e-08 0.6041447 -0.981238 0.599999
-0.9812384 0.9999995 0.6000005 -0.7955404 0.05615029 0.6032932 -0.981238 1.000000
-0.1999995 1.399999 1.060114 -0.1098569 0.324513 0.9394801 -0.199999 1.399999
0.2000004 1.399999 1.060114 0.1098582 0.2758789 0.9548938 0.200000 1.399999
1 1.530195 -0.2000005 0.8507765 0.5015884 -0.1568072 1.000000 1.530195
3 0 3 2 
3 0 2 1 
3 1 2 5 
3 1 5 4 
3 5 7 6 
3 5 6 4 
3 6 7 9 
3 6 9 8 
3 8 9 11 
3 8 11 10 
3 9 13 12 
3 9 12 11 
3 12 15 14 
3 12 14 11 
3 14 15 17 
3 14 17 16 
3 17 19 18 
3 17 18 16 
3 18 19 21 
3 18 21 20 
3 20 21 23 
3 20 23 22 
3 23 25 24 
3 23 24 22 
3 24 25 27 
3 24 27 26 
3 30 29 28 
3 30 28 27 
3 25 31 30 
3 25 30 27 
3 28 29 32 
3 32 35 34 
3 32 34 33 
3 36 28 32 
3 36 32 33 
3 38 37 34 
3 38 34 35 
3 42 41 40 
3 42 40 39 
3 37 38 42 
3 37 42 39 
3 40 41 43 
3 46 45 44 
3 46 44 43 
3 41 47 46 
3 41 46 43 
3 44 45 48 
3 45 50 49 
3 45 49 48 
3 50 51 49 
3 55 54 53 
3 55 53 52 
3 51 50 55 
3 51 55 52 
3 53 54 56 
3 56 59 58 
3 56 58 57 
3 60 53 56 
3 60 56 57 
3 62 58 59 
3 62 59 61 
3 63 58 62 
3 63 62 13 
3 59 65 64 
3 59 64 61 
3 61 64 66 
3 69 68 67 
3 69 67 66 
3 64 69 66 
3 67 68 70 
3 70 68 71 
3 70 71 30 
3 68 69 72 
3 68 72 71 
3 69 74 73 
3 69 73 72 
3 74 76 75 
3 74 75 73 
3 75 76 55 
3 75 55 46 
3 73 75 47 
3 73 47 42 
3 77 73 42 
3 72 73 77 
3 72 77 78 
3 67 79 66 
3 64 65 74 
3 64 74 69 
3 58 63 57 
3 65 59 56 
3 53 60 52 
3 76 54 55 
3 80 51 52 
3 80 52 3 
3 48 49 82 
3 48 82 81 
3 81 82 84 
3 81 84 83 
3 82 80 85 
3 82 85 84 
3 87 86 81 
3 87 81 83 
3 89 87 83 
3 89 83 88 
3 91 89 88 
3 91 88 90 
3 93 89 91 
3 93 91 92 
3 95 94 93 
3 95 93 92 
3 97 94 95 
3 97 95 96 
3 99 98 97 
3 99 97 96 
3 101 98 99 
3 101 99 100 
3 103 101 100 
3 103 100 102 
3 105 104 103 
3 105 103 102 
3 107 104 105 
3 107 105 106 
3 109 108 107 
3 109 107 106 
3 111 108 109 
3 111 109 110 
3 113 112 111 
3 113 111 110 
3 115 114 112 
3 115 112 113 
3 117 114 115 
3 117 115 116 
3 119 118 117 
3 119 117 116 
3 121 118 119 
3 121 119 120 
3 123 122 121 
3 123 121 120 
3 125 124 122 
3 125 122 123 
3 127 124 125 
3 127 125 126 
3 129 128 127 
3 129 127 126 
3 131 128 129 
3 131 129 130 
3 133 132 131 
3 133 131 130 
3 135 132 133 
3 135 133 134 
3 134 133 137 
3 134 137 136 
3 90 134 136 
3 90 136 138 
3 138 136 140 
3 138 140 139 
3 142 141 138 
3 142 138 139 
3 144 141 142 
3 144 142 143 
3 146 145 144 
3 146 144 143 
3 148 145 146 
3 148 146 147 
3 150 149 148 
3 150 148 147 
3 152 149 150 
3 152 150 151 
3 154 152 151 
3 154 151 153 
3 156 155 154 
3 156 154 153 
3 158 156 153 
3 158 153 157 
3 160 156 158 
3 160 158 159 
3 162 161 160 
3 162 160 159 
3 164 161 162 
3 164 162 163 
3 166 165 164 
3 166 164 163 
3 165 168 167 
3 165 167 164 
3 170 169 168 
3 170 168 165 
3 172 169 170 
3 172 170 171 
3 174 173 172 
3 174 172 171 
3 176 173 174 
3 176 174 175 
3 178 177 176 
3 178 176 175 
3 180 179 177 
3 180 177 178 
3 182 180 178 
3 182 178 181 
3 184 180 182 
3 184 182 183 
3 186 185 184 
3 186 184 183 
3 188 185 186 
3 188 186 187 
3 190 189 188 
3 190 188 187 
3 140 189 190 
3 140 190 191 
3 190 192 191 
3 191 192 194 
3 191 194 193 
3 194 192 196 
3 194 196 195 
3 198 197 194 
3 198 194 195 
3 200 199 198 
3 200 198 195 
3 199 200 201 
3 203 202 199 
3 203 199 201 
3 205 204 203 
3 205 203 201 
3 207 204 205 
3 207 205 206 
3 209 204 207 
3 209 207 208 
3 208 207 157 
3 205 211 210 
3 205 210 206 
3 206 210 212 
3 215 214 213 
3 215 213 212 
3 210 215 212 
3 213 214 216 
3 214 218 217 
3 214 217 216 
3 218 219 217 
3 218 222 221 
3 218 221 220 
3 219 218 220 
3 224 223 221 
3 224 221 222 
3 221 223 226 
3 221 226 225 
3 226 223 227 
3 226 229 228 
3 226 228 225 
3 232 231 230 
3 232 230 220 
3 225 228 232 
3 225 232 220 
3 230 231 233 
3 228 181 232 
3 234 224 222 
3 234 222 215 
3 236 235 224 
3 236 224 234 
3 221 225 220 
3 230 219 220 
3 233 238 237 
3 233 237 217 
3 219 230 233 
3 219 233 217 
3 237 238 166 
3 217 237 239 
3 217 239 216 
3 215 222 218 
3 215 218 214 
3 213 240 212 
3 211 234 215 
3 211 215 210 
3 204 209 203 
3 211 205 201 
3 236 234 211 
3 236 211 201 
3 200 236 201 
3 199 202 198 
3 236 200 195 
3 196 235 236 
3 196 236 195 
3 241 235 196 
3 194 197 193 
3 189 137 242 
3 189 242 188 
3 187 243 241 
3 187 241 196 
3 192 190 187 
3 192 187 196 
3 241 243 227 
3 242 244 185 
3 242 185 188 
3 186 243 187 
3 185 244 245 
3 185 245 184 
3 183 229 226 
3 183 226 227 
3 243 186 183 
3 243 183 227 
3 182 229 183 
3 228 229 182 
3 228 182 181 
3 181 178 175 
3 181 175 232 
3 175 174 231 
3 175 231 232 
3 231 174 171 
3 231 171 233 
3 171 170 238 
3 171 238 233 
3 239 237 166 
3 239 166 163 
3 167 246 161 
3 167 161 164 
3 162 239 163 
3 161 246 247 
3 161 247 160 
3 159 240 213 
3 159 213 216 
3 239 162 159 
3 239 159 216 
3 158 240 159 
3 157 207 206 
3 157 206 212 
3 240 158 157 
3 240 157 212 
3 153 151 208 
3 153 208 157 
3 151 150 209 
3 151 209 208 
3 147 146 202 
3 147 202 203 
3 202 146 143 
3 202 143 198 
3 143 142 197 
3 143 197 198 
3 197 142 139 
3 197 139 193 
3 139 140 191 
3 139 191 193 
3 132 85 0 
3 132 0 131 
3 137 133 130 
3 137 130 242 
3 244 129 126 
3 244 126 245 
3 126 125 179 
3 126 179 245 
3 179 125 123 
3 179 123 177 
3 177 123 120 
3 177 120 176 
3 118 249 248 
3 118 248 117 
3 173 119 116 
3 173 116 172 
3 248 250 114 
3 248 114 117 
3 116 115 169 
3 116 169 172 
3 169 115 113 
3 169 113 168 
3 112 252 251 
3 112 251 111 
3 168 113 110 
3 168 110 167 
3 251 253 108 
3 251 108 111 
3 110 109 246 
3 110 246 167 
3 108 253 254 
3 108 254 107 
3 246 109 106 
3 246 106 247 
3 106 105 155 
3 106 155 247 
3 104 256 255 
3 104 255 103 
3 256 258 257 
3 256 257 255 
3 26 258 256 
3 26 256 254 
3 257 260 259 
3 257 259 255 
3 260 262 261 
3 260 261 259 
3 261 262 264 
3 261 264 263 
3 264 266 265 
3 264 265 263 
3 265 266 268 
3 265 268 267 
3 262 269 39 
3 262 39 264 
3 270 269 262 
3 270 262 260 
3 33 270 260 
3 33 260 257 
3 155 105 102 
3 155 102 154 
3 255 259 101 
3 255 101 103 
3 102 100 152 
3 102 152 154 
3 259 261 98 
3 259 98 101 
3 100 99 149 
3 100 149 152 
3 149 99 96 
3 149 96 148 
3 263 265 94 
3 263 94 97 
3 96 95 145 
3 96 145 148 
3 94 265 267 
3 94 267 93 
3 145 95 92 
3 145 92 144 
3 88 135 134 
3 88 134 90 
3 141 91 90 
3 141 90 138 
3 83 84 135 
3 83 135 88 
3 86 44 48 
3 86 48 81 
3 55 50 45 
3 55 45 46 
3 47 75 46 
3 43 44 86 
3 43 86 268 
3 266 40 43 
3 266 43 268 
3 47 41 42 
3 38 77 42 
3 39 40 266 
3 39 266 264 
3 34 37 269 
3 34 269 270 
3 78 77 38 
3 78 38 35 
3 34 270 33 
3 78 35 32 
3 258 36 33 
3 258 33 257 
3 71 72 78 
3 71 78 32 
3 29 71 32 
3 31 271 70 
3 31 70 30 
3 28 36 27 
3 71 29 30 
3 253 24 26 
3 253 26 254 
3 31 25 23 
3 22 24 253 
3 22 253 251 
3 21 271 31 
3 21 31 23 
3 252 20 22 
3 252 22 251 
3 250 18 20 
3 250 20 252 
3 70 271 19 
3 70 19 17 
3 79 67 70 
3 79 70 17 
3 16 18 250 
3 16 250 248 
3 15 79 17 
3 249 14 16 
3 249 16 248 
3 66 79 15 
3 66 15 12 
3 62 61 66 
3 62 66 12 
3 13 62 12 
3 122 8 10 
3 122 10 121 
3 7 63 13 
3 7 13 9 
3 124 6 8 
3 124 8 122 
3 2 60 57 
3 2 57 5 
3 128 1 4 
3 128 4 127 
3 0 85 80 
3 0 80 3 
3 52 60 2 
3 52 2 3 
3 57 63 7 
3 57 7 5 
3 11 14 249 
3 11 249 10 
3 49 51 80 
3 49 80 82 
3 76 74 65 
3 76 65 56 
3 54 76 56 
3 19 271 21 
3 268 86 87 
3 268 87 267 
3 269 37 39 
3 27 36 258 
3 27 258 26 
3 0 1 128 
3 0 128 131 
3 4 6 124 
3 4 124 127 
3 10 249 118 
3 10 118 121 
3 84 85 132 
3 84 132 135 
3 114 250 252 
3 114 252 112 
3 267 87 89 
3 267 89 93 
3 98 261 263 
3 98 263 97 
3 254 256 104 
3 254 104 107 
3 130 129 244 
3 130 244 242 
3 245 179 180 
3 245 180 184 
3 120 119 173 
3 120 173 176 
3 136 137 189 
3 136 189 140 
3 224 235 241 
3 224 241 227 
3 223 224 227 
3 238 170 165 
3 238 165 166 
3 92 91 141 
3 92 141 144 
3 209 150 147 
3 209 147 203 
3 247 155 156 
3 247 156 160 
