ply
format ascii 1.0
comment VCGLIB generated
element vertex 38
property float x
property float y
property float z
property float nx
property float ny
property float nz
property float texture_u
property float texture_v
element face 72
property list uchar int vertex_indices
end_header
-2.682209e-07 0.9999999 0 -2.384187e-07 1 8.257301e-08 -0.000000 1.000000
-1.490116e-07 -0.9999995 0 5.960467e-08 -1 0 -0.000000 -1.000000
0.8660246 -0.9999998 0.4999999 0.8660253 -2.980234e-08 0.5000001 0.866025 -1.000000
0.939692 -0.9999995 0.34202 0.9396926 7.450583e-08 0.3420203 0.939692 -1.000000
0.9848073 -0.9999996 0.1736482 0.9848078 2.980233e-08 0.1736483 0.984807 -1.000000
0.9999992 -0.9999995 7.450581e-08 1 2.980234e-08 7.450585e-08 0.999999 -1.000000
0.9848073 -0.9999996 -0.1736482 0.9848078 2.980233e-08 -0.173648 0.984807 -1.000000
0.939692 -0.9999995 -0.3420199 0.9396926 8.9407e-08 -0.3420202 0.939692 -1.000000
0.8660246 -0.9999998 -0.4999997 0.8660254 -2.980234e-08 -0.5000001 0.866025 -1.000000
0.7660441 -0.9999999 -0.6427873 0.7660444 1.490117e-08 -0.6427876 0.766044 -1.000000
0.6427875 -0.9999998 -0.7660442 0.6427878 -1.490116e-08 -0.7660443 0.642787 -1.000000
0.4999996 -0.9999998 -0.8660251 0.4999999 2.235175e-08 -0.8660254 0.500000 -1.000000
0.3420198 -0.9999998 -0.9396924 0.3420203 2.235175e-08 -0.9396926 0.342020 -1.000000
0.1736481 -0.9999996 -0.9848076 0.1736482 7.450582e-09 -0.9848078 0.173648 -1.000000
2.980232e-08 -0.9999995 -0.9999996 7.450583e-08 1.776358e-15 -1 0.000000 -1.000000
-0.1736484 -0.9999996 -0.9848075 -0.1736481 7.450582e-09 -0.9848078 -0.173648 -1.000000
-0.3420201 -0.9999998 -0.9396925 -0.3420202 2.980233e-08 -0.9396927 -0.342020 -1.000000
-0.4999998 -0.9999996 -0.8660251 -0.4999999 -1.490117e-08 -0.8660254 -0.500000 -1.000000
-0.6427877 -0.9999996 -0.7660444 -0.6427875 2.980233e-08 -0.7660446 -0.642788 -1.000000
-0.7660444 -0.9999999 -0.6427876 -0.7660443 -1.490117e-08 -0.6427878 -0.766044 -1.000000
-0.8660252 -0.9999998 -0.4999999 -0.8660253 2.980234e-08 -0.5000001 -0.866025 -1.000000
-0.9396927 -0.9999999 -0.34202 -0.9396926 -7.450583e-08 -0.3420203 -0.939693 -1.000000
-0.9848074 -0.9999996 -0.1736482 -0.9848078 -2.980233e-08 -0.1736483 -0.984807 -1.000000
-0.9999992 -0.9999995 -7.450581e-08 -1 -2.980234e-08 -7.450585e-08 -0.999999 -1.000000
-0.9848074 -0.9999996 0.1736482 -0.9848078 -2.980233e-08 0.173648 -0.984807 -1.000000
-0.9396927 -0.9999999 0.3420199 -0.9396926 -8.9407e-08 0.3420202 -0.939693 -1.000000
-0.8660252 -0.9999998 0.4999997 -0.8660254 2.980234e-08 0.5000001 -0.866025 -1.000000
-0.7660444 -0.9999998 0.6427873 -0.7660444 -1.490117e-08 0.6427876 -0.766044 -1.000000
-0.6427879 -0.9999996 0.7660442 -0.6427878 1.490116e-08 0.7660443 -0.642788 -1.000000
-0.5000001 -0.9999999 0.8660251 -0.4999999 -2.235175e-08 0.8660254 -0.500000 -1.000000
-0.3420201 -0.9999998 0.9396924 -0.3420203 -2.235175e-08 0.9396926 -0.342020 -1.000000
-0.1736484 -0.9999995 0.9848076 -0.1736482 -7.450582e-09 0.9848078 -0.173648 -1.000000
-1.788139e-07 -0.9999995 0.9999996 -7.450583e-08 -1.776358e-15 1 -0.000000 -1.000000
0.1736481 -0.9999996 0.9848075 0.1736481 -7.450582e-09 0.9848078 0.173648 -1.000000
0.3420198 -0.9999998 0.9396925 0.3420202 -2.980233e-08 0.9396927 0.342020 -1.000000
0.4999994 -0.9999999 0.8660251 0.4999999 1.490117e-08 0.8660254 0.499999 -1.000000
0.6427873 -0.9999998 0.7660444 0.6427875 -2.980233e-08 0.7660446 0.642787 -1.000000
0.7660441 -0.9999999 0.6427876 0.7660443 1.490117e-08 0.6427878 0.766044 -1.000000
3 1 3 2 
3 1 4 3 
3 1 5 4 
3 1 6 5 
3 1 7 6 
3 1 8 7 
3 1 9 8 
3 1 10 9 
3 1 11 10 
3 1 12 11 
3 1 13 12 
3 1 14 13 
3 1 15 14 
3 1 16 15 
3 1 17 16 
3 1 18 17 
3 1 19 18 
3 1 20 19 
3 1 21 20 
3 1 22 21 
3 1 23 22 
3 1 24 23 
3 1 25 24 
3 1 26 25 
3 1 27 26 
3 1 28 27 
3 1 29 28 
3 1 30 29 
3 1 31 30 
3 1 32 31 
3 1 33 32 
3 1 34 33 
3 1 35 34 
3 1 36 35 
3 1 37 36 
3 1 2 37 
3 0 2 3 
3 0 3 4 
3 0 4 5 
3 0 5 6 
3 0 6 7 
3 0 7 8 
3 0 8 9 
3 0 9 10 
3 0 10 11 
3 0 11 12 
3 0 12 13 
3 0 13 14 
3 0 14 15 
3 0 15 16 
3 0 16 17 
3 0 17 18 
3 0 18 19 
3 0 19 20 
3 0 20 21 
3 0 21 22 
3 0 22 23 
3 0 23 24 
3 0 24 25 
3 0 25 26 
3 0 26 27 
3 0 27 28 
3 0 28 29 
3 0 29 30 
3 0 30 31 
3 0 31 32 
3 0 32 33 
3 0 33 34 
3 0 34 35 
3 0 35 36 
3 0 36 37 
3 0 37 2 
